# xmcd
#
# Track frame offsets:
#	150
#	11856
#	28413
#	45849
#	60923
#	77272
#	97355
#	110803
#	126882
#	140651
#	158850
#	177009
#	196877
#	211516
#	227505
#	250121
#	270602
#	284357
#	305863
#	327753
#
# Disc length: 4609 seconds
#
# Revision: 1
# Processed by: cddbd v1.4PL0 Copyright (c) Steve Scherf et al.
# Submitted via: CDmax 1.8
#
DISCID=1511ff14
DTITLE=Dolly Parton, Linda Ronstadt, Emmylou Harris - Trio I and II
DYEAR=2003
DGENRE=Country
TTITLE0=The Pain Of Loving You
TTITLE1=Making Plans
TTITLE2=To Know Him Is To Love Him
TTITLE3=Hobo's Meditation
TTITLE4=Wildflowers
TTITLE5=Telling Me Lies
TTITLE6=My Dear Companion
TTITLE7=I've Had Enough
TTITLE8=Rosewood Casket
TTITLE9=Farther Along
TTITLE10=Lover's Return
TTITLE11=High Sierra
TTITLE12=Do I Ever Cross Your Mind
TTITLE13=After The Gold Rush
TTITLE14=The Blue Train
TTITLE15=I Feel The Blues Movin' In
TTITLE16=You'll Never Be The Sun
TTITLE17=He Rode All The Way To Texas
TTITLE18=Feels Like Home
TTITLE19=When We're Gone, Long Gone
EXTD=
EXTT0=
EXTT1=
EXTT2=
EXTT3=
EXTT4=
EXTT5=
EXTT6=
EXTT7=
EXTT8=
EXTT9=
EXTT10=
EXTT11=
EXTT12=
EXTT13=
EXTT14=
EXTT15=
EXTT16=
EXTT17=
EXTT18=
EXTT19=
PLAYORDER=
